<svg width="100" height="100" viewBox="0 0 101 100" fill="none" xmlns="http://www.w3.org/2000/svg">
<rect x="0.25" width="100" height="100" rx="50" fill="#080808" />
<path fill="#ffffff"
                                        d="M51.5282 36.2222C60.5282 36.2222 67.806 43.5 67.806 52.5C67.806 61.5 60.5282 68.7778 51.5282 68.7778C42.5282 68.7778 35.2504 61.5 35.2504 52.5C35.2504 43.5 42.5282 36.2222 51.5282 36.2222ZM51.5282 56.8889C53.9727 56.8889 55.9171 54.9444 55.9171 52.5C55.9171 51.7222 55.7504 51.0556 55.3615 50.3889L59.8615 45.8889C60.3615 45.3889 60.3615 44.6111 59.8615 44.1111C59.3615 43.6111 58.5838 43.6111 58.0838 44.1111L53.5282 48.6667C52.9171 48.3333 52.1949 48.1667 51.4727 48.1667C49.0282 48.1667 47.0838 50.1111 47.0838 52.5556C47.1393 54.9444 49.1393 56.8889 51.5282 56.8889ZM51.5282 50.6667C52.5838 50.6667 53.4171 51.5 53.4171 52.5556C53.4171 53.6111 52.5838 54.4444 51.5282 54.4444C50.4727 54.4444 49.6393 53.6111 49.6393 52.5556C49.6393 51.5 50.5282 50.6667 51.5282 50.6667ZM69.4171 38.8333C72.306 42.6111 74.0282 47.3333 74.0282 52.5C74.0282 64.9444 63.9727 75 51.5282 75C42.1949 75 34.1949 69.3333 30.806 61.2222H34.9727C38.1393 67.1667 44.3615 71.2222 51.5838 71.2222C61.9171 71.2222 70.3615 62.8333 70.3615 52.4444C70.3615 42.0556 61.9171 33.7222 51.5282 33.7222C44.8615 33.7222 38.9727 37.2222 35.6393 42.5H31.3615C34.806 35.6111 41.6393 30.7222 49.6393 30.0556V28.7222H46.5282C45.4727 28.7222 44.6393 27.8889 44.6393 26.8333C44.6393 25.7778 45.4727 25 46.5282 25H56.5282C57.5838 25 58.4171 25.8333 58.4171 26.8889C58.4171 27.9444 57.5838 28.7778 56.5282 28.7778H53.4171V30.1111C56.8615 30.3889 60.0838 31.4444 62.9727 33.1111L63.7504 32.1667C64.6393 31.1111 66.1949 31 67.1949 31.8333L70.0282 34.2222C71.0838 35.1111 71.1949 36.6667 70.306 37.7222L69.4171 38.8333ZM29.6393 46.8889H25.2504C24.5282 46.8889 23.9727 46.3333 23.9727 45.6111C23.9727 44.9444 24.5282 44.3889 25.2504 44.3889H29.6393C30.3615 44.3889 30.9171 44.9444 30.9171 45.6667C30.9171 46.3333 30.3615 46.8889 29.6393 46.8889ZM27.1393 51.8889C27.1393 51.2222 27.6949 50.6667 28.4171 50.6667H32.806C33.5282 50.6667 34.0838 51.2222 34.0838 51.8889C34.0838 52.5556 33.5282 53.1111 32.806 53.1111H28.4171C27.6949 53.1111 27.1393 52.5556 27.1393 51.8889ZM25.306 56.2222H29.6949C30.4171 56.2222 30.9727 56.7778 30.9727 57.5C30.9727 58.1667 30.4171 58.7778 29.6949 58.7778H25.306C24.5838 58.7778 24.0282 58.2222 24.0282 57.5C24.0282 56.8333 24.5838 56.2222 25.306 56.2222Z" />
                                </svg>