<svg width="100" height="100" viewBox="0 0 101 100" fill="none" xmlns="http://www.w3.org/2000/svg">
<rect x="0.25" width="100" height="100" rx="50" fill="#080808" />
<path fill="#ffffff"
    d="M71.5446 46.5978V53.2066C71.5446 53.983 70.825 54.1535 70.1622 54.4186L70.7113 57.3159C76.79 59.0959 82.0735 56.0471 86.4472 51.9569L79.2513 51.2752C78.5506 51.2184 78.1719 50.4798 78.4938 49.8928L82.9439 41.6933C79.5731 44.1929 75.9948 46.3895 71.5446 46.5978ZM30.3579 54.3807C29.6951 54.1345 28.9755 53.9641 28.9755 53.1876V46.5788C24.5443 46.3894 20.9653 44.1928 17.5571 41.6931L22.0071 49.8926C22.329 50.4796 21.9503 51.2371 21.2496 51.275L14.0537 51.9567C18.4281 56.0281 23.7304 59.0958 29.809 57.3157L30.3579 54.3807ZM52.2863 37.8866L51.2637 36.5042C50.7335 35.8225 49.7488 35.8414 49.2564 36.5042L48.2339 37.8866C47.4196 38.966 46.075 39.4015 44.7874 39.0038L43.1399 38.4925C42.3256 38.2464 41.5303 38.8334 41.5114 39.6666L41.4924 41.3898C41.4735 42.7342 40.6403 43.8894 39.3526 44.3249L37.724 44.8741C36.9098 45.1581 36.6257 46.1049 37.0991 46.7867L38.0838 48.188C38.8602 49.3052 38.8602 50.7066 38.0838 51.8049L37.0991 53.2062C36.6257 53.869 36.9098 54.8348 37.724 55.1189L39.3526 55.668C40.6214 56.1036 41.4735 57.2398 41.4924 58.6032L41.5114 60.3264C41.5303 61.1785 42.3256 61.7656 43.1399 61.5004L44.7874 60.9891C46.075 60.5914 47.4385 61.027 48.2339 62.1063L49.2564 63.4887C49.7677 64.1704 50.7525 64.1704 51.2637 63.4887L52.2863 62.1063C53.1006 61.0269 54.4451 60.5914 55.7328 60.9891L57.3613 61.5004C58.1756 61.7466 58.971 61.1595 58.9899 60.3264L59.0088 58.6032C59.0278 57.2587 59.861 56.1036 61.1486 55.668C61.5274 55.5355 62.8908 55.1189 63.137 54.9295C63.6672 54.5129 63.7998 53.7555 63.4021 53.2063L62.4174 51.805C61.641 50.7067 61.641 49.2864 62.4174 48.1881L63.4021 46.7868C63.8755 46.124 63.5915 45.1582 62.7772 44.8741L61.1487 44.325C59.8799 43.8894 59.0467 42.7343 59.0088 41.3898L58.9899 39.6667C58.9899 38.8334 58.1756 38.2465 57.3614 38.4926L55.7328 39.0039C54.464 39.4205 53.1006 38.9659 52.2863 37.8866ZM34.9972 54.021C34.9215 51.6918 37.6294 50.7638 36.569 49.2868L35.5843 47.8855C34.3534 46.1433 35.1677 43.7763 37.1371 43.0946L37.5158 42.962C35.2624 42.2045 33.0468 41.2577 30.8691 40.1594V52.5629L34.9972 54.021ZM62.4744 42.7916C63.2887 43.0567 64.0082 43.2271 64.6332 43.871C65.6937 44.9315 65.864 46.6168 64.9551 47.8855L63.9704 49.2868C62.9099 50.7828 65.7126 51.7296 65.5422 54.1346C66.9435 53.6801 68.269 53.1688 69.6703 52.5818V40.0454C67.2844 41.1059 64.8983 42.0152 62.4744 42.7916ZM55.2406 45.0261C52.4949 42.2803 48.0258 42.2803 45.261 45.0261C42.5152 47.7719 42.5152 52.241 45.261 55.0057C48.0068 57.7515 52.4759 57.7515 55.2406 55.0057C58.0054 52.241 58.0054 47.772 55.2406 45.0261ZM50.2603 41.0684C55.2028 41.0684 59.1985 45.064 59.1985 50.0254C59.1985 54.9679 55.2028 58.9636 50.2603 58.9636C45.3178 58.9636 41.3033 54.9679 41.3033 50.0254C41.3222 45.064 45.3178 41.0684 50.2603 41.0684ZM45.9428 49.855C45.3179 48.7756 46.9654 47.8288 47.5714 48.9082L48.8022 51.048L53.0819 46.7683C53.953 45.8972 55.2975 47.2227 54.4264 48.1127L49.2756 53.2635C48.8401 53.699 48.1016 53.6043 47.7796 53.0741L45.9428 49.855Z" />
</svg>