<svg width="100" height="100" viewBox="0 0 101 100" fill="none" xmlns="http://www.w3.org/2000/svg">

                                         <rect x="0.75" width="100" height="100" rx="50" fill="#080808" />
                                    <path fill-rule="evenodd" clip-rule="evenodd" fill="#ffffff"
                                        d="M34.2261 36.6142L50.92 29.4599L67.6139 36.6142V50.8897C67.6139 60.9767 60.6321 68.7447 50.92 70.8149C41.2079 68.7447 34.2261 60.9767 34.2261 50.8897V36.6142ZM30.125 33.9121L50.92 25L71.715 33.9121V50.8897C71.715 62.996 63.2713 72.4582 51.5785 74.8645L50.92 75L50.2615 74.8645C38.5687 72.4582 30.125 62.996 30.125 50.8897V33.9121ZM51.108 72.4731C61.66 70.2918 69.281 61.8282 69.281 50.8897H69.2799V36.0668C69.2799 35.7019 69.0455 35.3917 68.7192 35.2789L51.2451 27.7901C51.2451 27.7901 50.795 27.7049 50.5943 27.7901L33.0671 35.3021C32.7508 35.4365 32.5612 35.7439 32.5612 36.0668H32.5595V50.8897C32.5595 61.8365 40.1916 70.304 50.7541 72.4776C50.8752 72.5024 50.9952 72.4991 51.108 72.4731ZM52.3729 40.9823C51.7785 40.7443 51.1399 40.6366 50.5003 40.6665C49.8605 40.6367 49.2217 40.7444 48.627 40.9823L49.3069 47.0243C49.3399 47.3177 49.4798 47.5886 49.6999 47.7853C49.92 47.9821 50.2049 48.0908 50.5001 48.0908C50.7953 48.0908 51.0802 47.9821 51.3003 47.7853C51.5204 47.5886 51.6604 47.3177 51.6934 47.0243L52.3729 40.9823ZM59.667 52.2575V50.5908C59.6676 49.5037 59.4541 48.4271 59.0387 47.4225C58.6232 46.4179 58.014 45.505 57.2457 44.7359C56.2079 47.0982 55.8668 49.7078 56.2627 52.2575H59.667ZM47.6508 47.2107C47.7297 47.9112 48.0639 48.5582 48.5896 49.028C49.1152 49.4977 49.7955 49.7574 50.5005 49.7574C51.2055 49.7574 51.8858 49.4977 52.4115 49.028C52.9371 48.5582 53.2713 47.9112 53.3503 47.2107L53.8614 42.6654C54.5877 42.8946 55.279 43.2225 55.9161 43.6397C54.6122 46.312 54.1469 49.316 54.5813 52.2575H46.4192C46.8534 49.3161 46.3881 46.3121 45.0843 43.6399C45.7215 43.2226 46.413 42.8947 47.1393 42.6654L47.6508 47.2107ZM41.962 47.4225C41.5465 48.4271 41.333 49.5037 41.3337 50.5908V52.2575H44.7373C45.1334 49.7079 44.7925 47.0982 43.7549 44.7359C42.9867 45.505 42.3774 46.418 41.962 47.4225ZM61.0896 55.3467C60.9333 55.503 60.7213 55.5908 60.5003 55.5908H40.5003C40.2793 55.5908 40.0674 55.503 39.9111 55.3467C39.7548 55.1905 39.667 54.9785 39.667 54.7575C39.667 54.5365 39.7548 54.3245 39.9111 54.1682C40.0674 54.0119 40.2793 53.9241 40.5003 53.9241H60.5003C60.7213 53.9241 60.9333 54.0119 61.0896 54.1682C61.2459 54.3245 61.3337 54.5365 61.3337 54.7575C61.3337 54.9785 61.2459 55.1905 61.0896 55.3467Z" />
                                </svg>