<svg width="100" height="100" viewBox="0 0 101 100" fill="none" xmlns="http://www.w3.org/2000/svg">
<rect x="0.25" width="100" height="100" rx="50" fill="#080808" />
<path fill="#ffffff"
                                        d="M33.3333 44.1667C37.9358 44.1667 41.6667 40.4358 41.6667 35.8333C41.6667 31.2308 37.9358 27.5 33.3333 27.5C28.7308 27.5 25 31.2308 25 35.8333C25 40.4358 28.7308 44.1667 33.3333 44.1667ZM29.6942 35.1883L32.1358 37.1858L36.8817 31.9408L38.1175 33.0592L32.84 38.8925C32.6758 39.0742 32.4492 39.1667 32.2217 39.1667C32.0358 39.1667 31.8492 39.105 31.6942 38.9783L28.6383 36.4783L29.6942 35.1883Z" />
                                    <path  fill="#ffffff"
                                        d="M73.3333 38.3333H70V30.8333H61.6667V38.3333H57.5V30.8333H49.1667V38.3333H45.8333V40H73.3333V53.3333H70V45.8333H61.6667V53.3333H57.5V45.8333H49.1667V53.3333H45.8333V55H73.3333V68.3333H70V60.8333H61.6667V68.3333H57.5V60.8333H49.1667V68.3333H45.8333V70H73.3333V75H75V25H73.3333V38.3333Z" />
                                    <path  fill="#ffffff"
                                        d="M26.6667 63.3225V74.1667H40V63.8725C39.9408 61.5525 38.4717 60.0692 36.6492 60.0542L36.2367 60.0517C37.985 59.0433 39.1667 57.1592 39.1667 55C39.1667 51.7833 36.5492 49.1667 33.3333 49.1667C30.1175 49.1667 27.5 51.7833 27.5 55C27.5 57.1233 28.6442 58.98 30.3442 60H30.0125C28.1692 59.985 26.6667 61.4767 26.6667 63.3225ZM33.3333 70L31.6667 65.8333L33.0983 60.8217C33.1775 60.825 33.2542 60.8333 33.3333 60.8333C33.41 60.8333 33.4842 60.825 33.56 60.8217L35 65.8333L33.3333 70ZM29.1667 55C29.1667 54.9892 29.17 54.9792 29.17 54.9692C29.3133 54.9825 29.4533 55.0008 29.6083 55C31.5392 54.9933 32.8958 53.7592 33.325 53.3333C33.7542 53.7592 35.1108 54.9933 37.0417 55C37.2025 55.0008 37.3483 54.9825 37.4967 54.9675C37.4967 54.9783 37.5 54.9892 37.5 55C37.5 57.2975 35.6308 59.1667 33.3333 59.1667C31.0358 59.1667 29.1667 57.2975 29.1667 55Z" />
                                </svg>