<svg width="40" height="41" viewBox="0 0 40 41" fill="none" xmlns="http://www.w3.org/2000/svg">
<rect y="0.705078" width="40" height="40" rx="20" fill="black"/>
<path d="M13.1812 20.8218C14.4089 20.0733 15.7792 19.4487 17.0596 18.8208C19.2624 17.7924 21.474 16.7819 23.7078 15.841C24.1424 15.6808 24.9234 15.524 25 16.2369C24.958 17.246 24.7855 18.2492 24.6672 19.2524C24.3669 21.4585 24.0198 23.6571 23.6814 25.8559C23.5648 26.5884 22.7358 26.9675 22.2054 26.4988C20.9307 25.5458 19.6462 24.602 18.3877 23.6269C17.9755 23.1633 18.3578 22.4975 18.7259 22.1665C19.7758 21.0213 20.8893 20.0483 21.8843 18.8439C22.1527 18.1265 21.3596 18.7311 21.098 18.9164C19.6607 20.0126 18.2586 21.1759 16.7432 22.1394C15.9692 22.611 15.067 22.2079 14.2933 21.9448C13.5996 21.6269 12.5831 21.3065 13.1812 20.8218Z" fill="white"/>
</svg>
