<svg width="40" height="41" viewBox="0 0 40 41" fill="none" xmlns="http://www.w3.org/2000/svg">
<rect y="0.705078" width="40" height="40" rx="20" fill="black"/>
<path fill-rule="evenodd" clip-rule="evenodd" d="M25.7177 18.2047C25.8066 17.9229 25.7177 17.7179 25.3237 17.7179H24.0146C23.6842 17.7179 23.5317 17.8972 23.4428 18.0894C23.4428 18.0894 22.7691 19.7293 21.8287 20.7926C21.5237 21.1001 21.3839 21.2026 21.2187 21.2026C21.1297 21.2026 21.0153 21.1001 21.0153 20.8183V18.1919C21.0153 17.8588 20.9137 17.7051 20.6341 17.7051H18.5752C18.3719 17.7051 18.2448 17.8588 18.2448 18.0126C18.2448 18.3328 18.715 18.4097 18.7659 19.3065V21.2538C18.7659 21.6766 18.6896 21.7535 18.5244 21.7535C18.0796 21.7535 16.9993 20.1008 16.3512 18.2175C16.2241 17.846 16.097 17.7051 15.7665 17.7051H14.4448C14.0635 17.7051 14 17.8844 14 18.0766C14 18.4225 14.4448 20.1649 16.0716 22.4709C17.1518 24.0467 18.6896 24.8923 20.0749 24.8923C20.9137 24.8923 21.0153 24.7001 21.0153 24.3798V23.1884C21.0153 22.804 21.0916 22.74 21.3585 22.74C21.5491 22.74 21.8922 22.8425 22.6675 23.5983C23.5571 24.4951 23.7096 24.9051 24.2053 24.9051H25.5143C25.8955 24.9051 26.0735 24.7129 25.9718 24.3414C25.8574 23.9699 25.4253 23.4318 24.8662 22.7912C24.5611 22.4325 24.1036 22.0353 23.9638 21.8432C23.7731 21.5869 23.824 21.4844 23.9638 21.2538C23.9511 21.2538 25.5524 18.9734 25.7177 18.2047Z" fill="white"/>
</svg>
