<svg width="40" height="41" viewBox="0 0 40 41" fill="none" xmlns="http://www.w3.org/2000/svg">
<rect y="0.705078" width="40" height="40" rx="20" fill="black"/>
<path d="M26.457 24.1196C26.3832 23.9869 26.1864 23.9073 25.8912 23.7481C25.596 23.5889 24.1444 22.8196 23.8737 22.7134C23.6031 22.6073 23.4062 22.5543 23.2094 22.8726C23.0126 23.1909 22.4468 23.9073 22.2746 24.1196C22.1023 24.3317 21.9301 24.3584 21.635 24.1991C21.3397 24.04 20.3884 23.7042 19.2606 22.6207C18.3829 21.7773 17.7904 20.7359 17.6182 20.4176C17.4459 20.0992 17.5998 19.9271 17.7476 19.7685C17.8804 19.626 18.0429 19.397 18.1905 19.2113C18.3381 19.0257 18.3873 18.8929 18.4857 18.6808C18.5841 18.4685 18.5349 18.2828 18.4611 18.1237C18.3873 17.9645 17.7968 16.3991 17.5508 15.7623C17.3111 15.1421 17.0677 15.2261 16.8865 15.2163C16.7145 15.207 16.5175 15.2051 16.3207 15.2051C16.1238 15.2051 15.804 15.2847 15.5333 15.6031C15.2627 15.9215 14.5 16.6909 14.5 18.2561C14.5 19.8215 15.5579 21.3338 15.7056 21.546C15.8532 21.7584 17.7874 24.9705 20.7492 26.3481C21.4536 26.6758 22.0035 26.8715 22.4324 27.0181C23.1396 27.2601 23.7833 27.226 24.2919 27.144C24.8593 27.0528 26.0388 26.3748 26.2848 25.6319C26.5308 24.8889 26.5308 24.2522 26.457 24.1196Z" fill="white"/>
</svg>
