<svg width="40" height="40" viewBox="0 0 40 40" xmlns="http://www.w3.org/2000/svg">
<rect width="40" height="40" rx="20" />
<path d="M13.1812 20.1167C14.4089 19.3683 15.7792 18.7436 17.0596 18.1157C19.2624 17.0873 21.474 16.0768 23.7078 15.136C24.1424 14.9757 24.9234 14.8189 25 15.5318C24.958 16.5409 24.7855 17.5441 24.6672 18.5473C24.3669 20.7534 24.0198 22.952 23.6814 25.1508C23.5648 25.8833 22.7358 26.2624 22.2054 25.7937C20.9307 24.8407 19.6462 23.897 18.3877 22.9219C17.9755 22.4582 18.3578 21.7925 18.7259 21.4614C19.7758 20.3162 20.8893 19.3432 21.8843 18.1388C22.1527 17.4215 21.3596 18.026 21.098 18.2113C19.6607 19.3076 18.2586 20.4708 16.7432 21.4343C15.9692 21.9059 15.067 21.5028 14.2933 21.2397C13.5996 20.9218 12.5831 20.6014 13.1812 20.1167Z" />
</svg>
