<svg width="40" height="40" viewBox="0 0 40 40" xmlns="http://www.w3.org/2000/svg">
<rect width="40" height="40" rx="20"/>
<path fill-rule="evenodd" clip-rule="evenodd" d="M25.7177 17.4996C25.8066 17.2178 25.7177 17.0128 25.3237 17.0128H24.0146C23.6842 17.0128 23.5317 17.1922 23.4428 17.3843C23.4428 17.3843 22.7691 19.0242 21.8287 20.0875C21.5237 20.395 21.3839 20.4975 21.2187 20.4975C21.1297 20.4975 21.0153 20.395 21.0153 20.1132V17.4868C21.0153 17.1537 20.9137 17 20.6341 17H18.5752C18.3719 17 18.2448 17.1537 18.2448 17.3075C18.2448 17.6278 18.715 17.7046 18.7659 18.6014V20.5488C18.7659 20.9715 18.6896 21.0484 18.5244 21.0484C18.0796 21.0484 16.9993 19.3957 16.3512 17.5125C16.2241 17.1409 16.097 17 15.7665 17H14.4448C14.0635 17 14 17.1794 14 17.3715C14 17.7174 14.4448 19.4598 16.0716 21.7658C17.1518 23.3416 18.6896 24.1872 20.0749 24.1872C20.9137 24.1872 21.0153 23.995 21.0153 23.6747V22.4833C21.0153 22.0989 21.0916 22.0349 21.3585 22.0349C21.5491 22.0349 21.8922 22.1374 22.6675 22.8932C23.5571 23.79 23.7096 24.2 24.2053 24.2H25.5143C25.8955 24.2 26.0735 24.0078 25.9718 23.6363C25.8574 23.2648 25.4253 22.7267 24.8662 22.0861C24.5611 21.7274 24.1036 21.3303 23.9638 21.1381C23.7731 20.8819 23.824 20.7794 23.9638 20.5488C23.9511 20.5488 25.5524 18.2683 25.7177 17.4996Z"/>
</svg>
  