<svg width="40" height="40" viewBox="0 0 40 40"  xmlns="http://www.w3.org/2000/svg">
<rect width="40" height="40" rx="20" />
<path d="M26.457 23.4145C26.3832 23.2818 26.1864 23.2022 25.8912 23.043C25.596 22.8838 24.1444 22.1145 23.8737 22.0083C23.6031 21.9022 23.4062 21.8492 23.2094 22.1675C23.0126 22.4858 22.4468 23.2022 22.2746 23.4145C22.1023 23.6267 21.9301 23.6533 21.635 23.4941C21.3397 23.3349 20.3884 22.9991 19.2606 21.9156C18.3829 21.0723 17.7904 20.0309 17.6182 19.7125C17.4459 19.3941 17.5998 19.222 17.7476 19.0634C17.8804 18.9209 18.0429 18.6919 18.1905 18.5063C18.3381 18.3206 18.3873 18.1879 18.4857 17.9758C18.5841 17.7634 18.5349 17.5778 18.4611 17.4186C18.3873 17.2594 17.7968 15.694 17.5508 15.0572C17.3111 14.4371 17.0677 14.5211 16.8865 14.5113C16.7145 14.502 16.5175 14.5 16.3207 14.5C16.1238 14.5 15.804 14.5796 15.5333 14.898C15.2627 15.2164 14.5 15.9858 14.5 17.5511C14.5 19.1165 15.5579 20.6287 15.7056 20.8409C15.8532 21.0533 17.7874 24.2655 20.7492 25.643C21.4536 25.9707 22.0035 26.1664 22.4324 26.313C23.1396 26.555 23.7833 26.5209 24.2919 26.439C24.8593 26.3477 26.0388 25.6697 26.2848 24.9268C26.5308 24.1838 26.5308 23.5471 26.457 23.4145Z" />
</svg>
